<svg width="24" height="24" viewBox="0 0 24 24" fill="none" xmlns="http://www.w3.org/2000/svg">
<g clip-path="url(#clip0_3586_1660)">
<path d="M16.0014 12.0002V11.9992C16.0013 11.0739 15.6805 10.1773 15.0935 9.46208C14.5065 8.74686 13.6897 8.25729 12.7823 8.07677C11.8748 7.89626 10.9328 8.03597 10.1168 8.4721C9.30079 8.90823 8.66124 9.6138 8.30711 10.4686C7.95298 11.3234 7.90619 12.2745 8.17471 13.16C8.44322 14.0454 9.01043 14.8103 9.77969 15.3244C10.5489 15.8386 11.4727 16.0701 12.3935 15.9795C13.3143 15.8889 14.1752 15.4819 14.8295 14.8277C15.2008 14.4688 15.4959 14.0388 15.6973 13.5633C15.8986 13.0877 16.002 12.5765 16.0014 12.0602L16.0004 11.9972L16.0014 12.0002ZM18.161 12.0002C18.1562 13.4184 17.6601 14.7912 16.7572 15.8848C15.8542 16.9785 14.6002 17.7254 13.2085 17.9986C11.8168 18.2718 10.3734 18.0542 9.12406 17.3831C7.87468 16.7119 6.89649 15.6285 6.35595 14.3173C5.8154 13.0061 5.74592 11.5481 6.15931 10.1914C6.5727 8.83478 7.44342 7.66328 8.6233 6.87631C9.80318 6.08935 11.2193 5.73554 12.6307 5.87511C14.042 6.01469 15.3614 6.63901 16.3643 7.64183C16.9338 8.19446 17.3864 8.85594 17.6953 9.58695C18.0041 10.318 18.1628 11.1036 18.162 11.8972L18.161 12.0062V12.0012V12.0002ZM19.8478 5.59514V5.59714C19.8479 5.93025 19.7325 6.25309 19.5212 6.51065C19.31 6.76821 19.016 6.94455 18.6893 7.00964C18.3626 7.07472 18.0235 7.02452 17.7297 6.86758C17.4358 6.71064 17.2055 6.45667 17.078 6.14896C16.9504 5.84124 16.9335 5.49882 17.0301 5.18003C17.1267 4.86124 17.3309 4.58581 17.6078 4.40068C17.8847 4.21554 18.2173 4.13216 18.5488 4.16473C18.8803 4.1973 19.1902 4.34381 19.4258 4.5793C19.6818 4.83026 19.8408 5.18021 19.8408 5.56715V5.59614L19.8478 5.59514ZM12.009 2.15567L10.8142 2.14767C10.0903 2.14234 9.54068 2.14234 9.16541 2.14767C8.79013 2.153 8.28754 2.16867 7.65764 2.19466C7.07273 2.21466 6.51782 2.27265 5.9749 2.36464L6.04789 2.35464C5.62295 2.42463 5.24601 2.52461 4.88507 2.65759L4.92806 2.64359C4.41814 2.84858 3.95444 3.15359 3.56429 3.54065C3.17413 3.92771 2.86544 4.38898 2.65641 4.89725L2.64641 4.92424C2.51807 5.27551 2.42301 5.63804 2.36245 6.00708L2.35745 6.04407C2.26853 6.56944 2.21541 7.10025 2.19848 7.63283L2.19748 7.65383C2.17148 8.2844 2.15582 8.78699 2.15049 9.16159C2.14515 9.5362 2.14515 10.0858 2.15049 10.8103C2.15582 11.5349 2.15849 11.9332 2.15849 12.0052C2.15849 12.0771 2.15582 12.4754 2.15049 13.2C2.14515 13.9245 2.14515 14.4741 2.15049 14.8487C2.15582 15.2233 2.17148 15.7259 2.19748 16.3565C2.21748 16.9414 2.27547 17.4963 2.36745 18.0392L2.35745 17.9662C2.42744 18.3912 2.52743 18.7681 2.66041 19.1291L2.64641 19.0861C2.85139 19.596 3.15641 20.0597 3.54347 20.4498C3.93053 20.84 4.39179 21.1487 4.90006 21.3577L4.92706 21.3677C5.24501 21.4867 5.62195 21.5867 6.00989 21.6517L6.04689 21.6567C6.51582 21.7387 7.07073 21.7967 7.63464 21.8157L7.65564 21.8167C8.28621 21.8427 8.7888 21.8583 9.16341 21.8636C9.53802 21.869 10.0876 21.869 10.8122 21.8636L12 21.8397L13.1948 21.8477C13.9187 21.853 14.4683 21.853 14.8435 21.8477C15.2188 21.8423 15.7214 21.8267 16.3513 21.8007C16.9362 21.7807 17.4911 21.7227 18.034 21.6307L17.9611 21.6407C18.386 21.5707 18.7629 21.4707 19.1239 21.3377L19.0809 21.3517C19.5908 21.1467 20.0545 20.8417 20.4447 20.4547C20.8348 20.0676 21.1435 19.6063 21.3525 19.0981L21.3625 19.0711C21.4815 18.7531 21.5815 18.3762 21.6465 17.9882L21.6515 17.9512C21.7335 17.4823 21.7915 16.9274 21.8105 16.3635L21.8115 16.3425C21.8375 15.7119 21.8531 15.2093 21.8585 14.8347C21.8638 14.4601 21.8638 13.9105 21.8585 13.186C21.8531 12.4614 21.8505 12.0631 21.8505 11.9912C21.8505 11.9192 21.8531 11.5209 21.8585 10.7963C21.8638 10.0718 21.8638 9.52221 21.8585 9.1476C21.8531 8.77299 21.8375 8.2704 21.8115 7.63983C21.7915 7.05492 21.7335 6.5 21.6415 5.95709L21.6515 6.03007C21.5881 5.63364 21.4866 5.24424 21.3485 4.86725L21.3625 4.91025C21.1576 4.40033 20.8525 3.93662 20.4655 3.54647C20.0784 3.15632 19.6172 2.84763 19.1089 2.6386L19.0819 2.6286C18.7306 2.50026 18.3681 2.40519 17.9991 2.34464L17.9621 2.33964C17.437 2.25076 16.9065 2.19764 16.3743 2.18067L16.3533 2.17967C15.7227 2.15367 15.2201 2.13801 14.8455 2.13267C14.4709 2.12734 13.9213 2.12734 13.1968 2.13267L12.009 2.15567ZM24.0001 12.0002C24.0001 14.3851 23.9735 16.0359 23.9201 16.9524C23.9674 17.8812 23.819 18.8096 23.4845 19.6775C23.15 20.5453 22.6369 21.3331 21.9785 21.99C21.32 22.6468 20.5309 23.158 19.6623 23.4903C18.7937 23.8227 17.8649 23.9689 16.9362 23.9193L16.9522 23.9203C16.0357 23.9737 14.3849 24.0003 12 24.0003C9.61501 24.0003 7.96426 23.9737 7.04773 23.9203C6.1189 23.9676 5.19049 23.8192 4.32268 23.4847C3.45487 23.1502 2.66702 22.6371 2.01018 21.9787C1.35335 21.3202 0.842179 20.5311 0.509809 19.6625C0.177439 18.7939 0.03128 17.8651 0.0808045 16.9364L0.0798046 16.9524C0.0264795 16.0359 -0.000183105 14.3851 -0.000183105 12.0002C-0.000183105 9.61519 0.0264795 7.96444 0.0798046 7.04792C0.0325433 6.11908 0.180965 5.19067 0.515451 4.32286C0.849937 3.45505 1.36302 2.6672 2.02146 2.01037C2.6799 1.35353 3.469 0.842363 4.33762 0.509992C5.20625 0.177622 6.13501 0.0314631 7.06373 0.0809876L7.04773 0.0799877C7.96426 0.0266626 9.61501 0 12 0C14.3849 0 16.0357 0.0266626 16.9522 0.0799877C17.8811 0.0327264 18.8095 0.181148 19.6773 0.515634C20.5451 0.85012 21.3329 1.36321 21.9898 2.02165C22.6466 2.68009 23.1578 3.46918 23.4901 4.33781C23.8225 5.20643 23.9687 6.1352 23.9191 7.06392L23.9201 7.04792C23.9735 7.96378 24.0001 9.61452 24.0001 12.0002Z" fill="#004366"/>
</g>
<defs>
<clipPath id="clip0_3586_1660">
<rect width="24" height="24" fill="white"/>
</clipPath>
</defs>
</svg>
