<svg width="49" height="49" viewBox="0 0 49 49" fill="none" xmlns="http://www.w3.org/2000/svg">
<g clip-path="url(#clip0_3567_2718)">
<path d="M32.7083 6.00533C40.9149 3.33326 48.1088 12.2343 43.9095 19.8612C51.0859 24.701 48.7025 35.9467 40.2078 37.3801C40.9498 46.0864 30.7876 51.2094 24.3882 45.3609C18.1372 51.3775 7.85272 46.52 8.36782 37.8048C-0.179293 36.6015 -2.84208 25.4265 4.20339 20.3921C-0.188023 12.8802 6.76142 3.79335 15.0379 6.24422C18.0935 -1.92241 29.4431 -2.07283 32.7083 6.00533Z" fill="#FFE27A"/>
<path d="M16.2689 21.1354C17.3489 21.1354 18.2245 20.248 18.2245 19.1534C18.2245 18.0589 17.3489 17.1715 16.2689 17.1715C15.1888 17.1715 14.3132 18.0589 14.3132 19.1534C14.3132 20.248 15.1888 21.1354 16.2689 21.1354Z" fill="#00283D"/>
<path d="M31.3725 21.1354C32.4526 21.1354 33.3281 20.248 33.3281 19.1534C33.3281 18.0589 32.4526 17.1715 31.3725 17.1715C30.2924 17.1715 29.4169 18.0589 29.4169 19.1534C29.4169 20.248 30.2924 21.1354 31.3725 21.1354Z" fill="#00283D"/>
<path d="M37.7982 25.1965C37.3879 25.9132 36.5672 26.3291 35.7116 26.1787C34.856 26.0283 34.2362 25.3293 34.1052 24.5153" stroke="#00283D" stroke-width="2" stroke-miterlimit="10" stroke-linecap="round"/>
<path d="M9.82581 25.1965C10.2361 25.9132 11.0568 26.3291 11.9124 26.1787C12.768 26.0283 13.3878 25.3293 13.5188 24.5153" stroke="#00283D" stroke-width="2" stroke-miterlimit="10" stroke-linecap="round"/>
<path d="M35.7028 26.276C34.2361 31.5228 29.4693 35.3717 23.8207 35.3717C18.1721 35.3717 13.3616 31.4963 11.9124 26.2052" stroke="#00283D" stroke-width="2" stroke-miterlimit="10" stroke-linecap="round"/>
</g>
<defs>
<clipPath id="clip0_3567_2718">
<rect width="48" height="48" fill="white" transform="translate(0.161255 0.0330811)"/>
</clipPath>
</defs>
</svg>
