<svg width="49" height="49" viewBox="0 0 49 49" fill="none" xmlns="http://www.w3.org/2000/svg">
<g clip-path="url(#clip0_3567_2723)">
<path d="M33.3859 6.19393C41.5925 3.52185 48.7864 12.4229 44.587 20.0498C51.7634 24.8896 49.38 36.1353 40.8853 37.5687C41.6274 46.275 31.4652 51.398 25.0657 45.5495C18.8147 51.5661 8.53027 46.7086 9.04537 37.9934C0.498258 36.7901 -2.16453 25.6151 4.88094 20.5807C0.489528 13.0688 7.43897 3.98195 15.7154 6.43282C18.7711 -1.73381 30.1207 -1.88423 33.3859 6.19393Z" fill="#F4A182"/>
<path d="M17.6587 22.023C18.7387 22.023 19.6143 21.1356 19.6143 20.041C19.6143 18.9464 18.7387 18.0591 17.6587 18.0591C16.5786 18.0591 15.7031 18.9464 15.7031 20.041C15.7031 21.1356 16.5786 22.023 17.6587 22.023Z" fill="#00283D"/>
<path d="M32.7624 22.023C33.8424 22.023 34.718 21.1356 34.718 20.041C34.718 18.9464 33.8424 18.0591 32.7624 18.0591C31.6823 18.0591 30.8068 18.9464 30.8068 20.041C30.8068 21.1356 31.6823 22.023 32.7624 22.023Z" fill="#00283D"/>
<path d="M14.8387 29.1189C16.5674 29.1189 16.5674 31.6406 18.296 31.6406C20.0246 31.6406 20.0246 29.1189 21.7533 29.1189C23.4819 29.1189 23.4819 31.6406 25.2105 31.6406C26.9391 31.6406 26.9391 29.1189 28.6678 29.1189C30.3964 29.1189 30.3964 31.6406 32.1338 31.6406C33.8711 31.6406 33.8624 29.1189 35.5998 29.1189" stroke="#00283D" stroke-width="2" stroke-miterlimit="10" stroke-linecap="round"/>
</g>
<defs>
<clipPath id="clip0_3567_2723">
<rect width="48" height="48" fill="white" transform="translate(0.838745 0.22168)"/>
</clipPath>
</defs>
</svg>
