<svg width="84" height="85" viewBox="0 0 84 85" fill="none" xmlns="http://www.w3.org/2000/svg">
<g clip-path="url(#clip0_3567_2712)">
<path d="M49.6346 13.8317C61.0615 7.74685 74.0069 19.0217 69.7902 31.3821C81.6519 36.6623 81.0603 53.8954 68.8851 58.2254C72.2491 70.8932 58.5717 81.1079 47.5951 74.1353C39.9282 84.6513 23.4706 80.1546 21.9614 67.1462C9.0221 67.5949 2.17784 51.7808 11.2742 42.5086C2.83046 32.5558 10.7294 17.3225 23.5939 18.7872C25.9805 5.92746 42.7071 2.74901 49.6346 13.8317Z" fill="#FFE27A"/>
<path d="M29.291 40.464C30.8865 40.1827 31.9488 38.6438 31.6637 37.0269C31.3785 35.4099 29.854 34.3272 28.2586 34.6085C26.6631 34.8899 25.6008 36.4287 25.8859 38.0457C26.171 39.6626 27.6956 40.7453 29.291 40.464Z" fill="#00283D"/>
<path d="M51.6024 36.5299C53.1979 36.2486 54.2601 34.7098 53.975 33.0928C53.6899 31.4759 52.1654 30.3931 50.5699 30.6745C48.9744 30.9558 47.9122 32.4946 48.1973 34.1116C48.4824 35.7285 50.0069 36.8113 51.6024 36.5299Z" fill="#00283D"/>
<path d="M62.1522 40.8554C61.7327 42.021 60.6287 42.849 59.3257 42.8497C58.0226 42.8504 56.9249 41.9793 56.5194 40.8109" stroke="#00283D" stroke-width="2" stroke-miterlimit="10" stroke-linecap="round"/>
<path d="M20.8311 48.1414C21.6239 49.0932 22.9445 49.4938 24.1692 49.0487C25.3939 48.6037 26.1275 47.4097 26.1089 46.1731" stroke="#00283D" stroke-width="2" stroke-miterlimit="10" stroke-linecap="round"/>
<path d="M59.3381 42.9958C58.5381 51.1285 52.4991 58.0557 44.1549 59.527C35.8107 60.9983 27.6952 56.5265 24.1761 49.088" stroke="#00283D" stroke-width="2" stroke-miterlimit="10" stroke-linecap="round"/>
</g>
<defs>
<clipPath id="clip0_3567_2712">
<rect width="72" height="72" fill="white" transform="translate(0 13.4871) rotate(-10)"/>
</clipPath>
</defs>
</svg>
