<svg width="49" height="49" viewBox="0 0 49 49" fill="none" xmlns="http://www.w3.org/2000/svg">
<g clip-path="url(#clip0_3567_2730)">
<path d="M32.7083 6.88289C40.9149 4.21082 48.1088 13.1118 43.9095 20.7387C51.0859 25.5786 48.7025 36.8243 40.2078 38.2576C40.9498 46.964 30.7876 52.0869 24.3882 46.2385C18.1372 52.2551 7.85272 47.3975 8.36782 38.6823C-0.179293 37.479 -2.84208 26.3041 4.20339 21.2696C-0.188023 13.7577 6.76142 4.67091 15.0379 7.12179C18.0935 -1.04485 29.4431 -1.19526 32.7083 6.88289Z" fill="#B1CBE2"/>
<path d="M14.1613 18.0933C14.4319 18.8719 15.174 19.4381 16.0383 19.4381C16.9026 19.4381 17.6447 18.8719 17.9153 18.0933" stroke="#00283D" stroke-width="2" stroke-miterlimit="10" stroke-linecap="round"/>
<path d="M29.2649 18.0933C29.5355 18.8719 30.2776 19.4381 31.1419 19.4381C32.0063 19.4381 32.7483 18.8719 33.019 18.0933" stroke="#00283D" stroke-width="2" stroke-miterlimit="10" stroke-linecap="round"/>
<path d="M17.4788 25.4195C17.4788 26.2246 16.8328 26.8794 16.0383 26.8794C15.2438 26.8794 14.5978 26.2246 14.5978 25.4195C14.5978 24.6143 16.0383 22.0042 16.0383 22.0042C16.0383 22.0042 17.4788 24.6143 17.4788 25.4195Z" fill="#00283D" stroke="#00283D" stroke-linejoin="round"/>
<path d="M30.8102 31.719C29.8237 28.8965 27.1696 26.8792 24.0441 26.8792C20.9186 26.8792 18.2558 28.9053 17.2693 31.7367" stroke="#00283D" stroke-width="2" stroke-miterlimit="10" stroke-linecap="round"/>
</g>
<defs>
<clipPath id="clip0_3567_2730">
<rect width="48" height="48" fill="white" transform="translate(0.161255 0.910645)"/>
</clipPath>
</defs>
</svg>
