<svg width="84" height="85" viewBox="0 0 84 85" fill="none" xmlns="http://www.w3.org/2000/svg">
<g clip-path="url(#clip0_3567_2713)">
<path d="M59.5234 18.2843C72.3423 16.4747 80.6508 31.4971 72.4609 41.6699C81.8013 50.6886 75.3513 66.6801 62.4295 66.5848C61.2579 79.6392 44.9117 84.5599 36.9818 74.2536C26.1806 81.5132 12.2535 71.6588 15.2845 58.9188C2.97204 54.9149 1.9493 37.7136 13.6683 32.1118C9.13788 19.8713 21.7705 8.25826 33.3582 14.0345C39.9993 2.76658 56.8042 5.50064 59.5234 18.2843Z" fill="#EC9FB8"/>
<path d="M30.0099 30.3844C30.2069 31.6051 31.1556 32.6349 32.4324 32.86C33.7092 33.0851 34.9529 32.4419 35.5555 31.3622" stroke="#00283D" stroke-width="2" stroke-miterlimit="10" stroke-linecap="round"/>
<path d="M52.3083 34.3162C52.5053 35.5368 53.4541 36.5666 54.7308 36.7918C56.0076 37.0169 57.2513 36.3737 57.8539 35.294" stroke="#00283D" stroke-width="2" stroke-miterlimit="10" stroke-linecap="round"/>
<path d="M31.7157 43.6362C32.4379 48.0626 35.833 51.734 40.45 52.5481C45.0671 53.3622 49.5283 51.0627 51.7231 47.1371" stroke="#00283D" stroke-width="2" stroke-miterlimit="10" stroke-linecap="round"/>
</g>
<defs>
<clipPath id="clip0_3567_2713">
<rect width="72" height="72" fill="white" transform="translate(13 0.984375) rotate(10)"/>
</clipPath>
</defs>
</svg>
