<svg width="154" height="25" viewBox="0 0 154 25" fill="none" xmlns="http://www.w3.org/2000/svg">
<g clip-path="url(#clip0_3585_1489)">
<path d="M25.1154 15.7852L21.6579 12.3277C22.5589 10.9447 23.4181 9.54069 24.2143 8.09481C25.1364 6.43938 23.6067 4.11339 21.6369 4.74203L15.9372 6.60701C14.177 4.84681 12.4168 3.0866 10.6566 1.32639C9.52499 0.194827 7.15709 0.59297 6.84277 2.33222C6.42367 4.63726 6.21412 6.94229 6.15126 9.26828C5.50166 8.95396 4.70537 8.95396 4.03482 9.31019C3.04994 9.81311 2.06506 10.316 1.10114 10.8189C-0.617162 11.699 -0.239975 14.5699 1.64596 14.989C3.28044 15.3452 4.91492 15.7014 6.5494 16.0577C6.88468 18.4046 7.38759 20.7515 8.12101 23.0356C8.64489 24.6701 10.6566 25.2568 11.9348 24.0415C13.7998 22.2603 15.5181 20.3534 17.1735 18.3836C19.0804 18.8027 21.0082 19.2218 22.9151 19.6409C25.0735 20.1019 26.7918 17.5035 25.1364 15.8272L25.1154 15.7852Z" fill="#004366"/>
<path d="M57.5742 18.9091C55.8922 16.5501 54.2101 14.1707 52.5486 11.8117C53.7794 9.53484 55.1537 7.36051 56.7742 5.32976C57.4716 4.46823 57.6973 3.34004 56.9383 2.39646C56.2614 1.55545 55.0306 1.22725 54.0666 1.82211C52.0768 3.05287 50.0871 4.28362 48.0769 5.49386C47.1948 4.26311 46.3128 3.01184 45.4513 1.78109C44.9179 1.04263 44.1795 0.570844 43.2359 0.714432C42.4564 0.837507 41.4923 1.45288 41.3898 2.31441C41.0411 4.83746 40.8975 7.38102 40.9385 9.90407C38.9078 11.1553 36.877 12.3861 34.8668 13.6374C33.1437 14.704 33.636 17.0424 35.4001 17.7194C37.6155 18.5399 39.8718 19.2373 42.1487 19.8322C42.3949 20.9398 42.6821 22.0475 43.0103 23.1347C43.8103 25.7193 47.7077 24.8167 47.4 22.3552C47.9128 22.1911 48.3641 21.8629 48.6512 21.2885C50.9897 21.6988 53.3281 22.068 55.687 22.2731C57.3075 22.4167 58.5588 20.2424 57.6152 18.9091H57.5742Z" fill="#004366"/>
<path d="M88.1193 12.0375C86.0616 11.3662 84.0185 10.7095 81.9608 10.0382C81.523 7.29459 81.0998 4.56561 80.662 1.82203C80.4723 0.581586 78.794 0.377278 78.006 1.12155C76.0942 2.94573 74.3576 4.94504 72.8253 7.07569C72.694 7.03191 72.5772 6.98813 72.4459 6.95894C72.4751 6.25845 72.0227 5.44122 71.293 5.32447C70.1693 5.14935 69.0602 4.97423 67.9365 4.79911C66.3896 4.55102 65.2805 6.20008 66.3896 7.45512C67.6008 8.81232 68.8121 10.1841 70.038 11.5413C68.7683 13.8617 67.7176 16.2988 66.8858 18.8235C66.5939 19.7137 67.3965 20.9687 68.4181 20.8374C71.2784 20.4579 74.0803 19.9034 76.8385 19.1737C78.3271 20.8374 79.8156 22.5156 81.3041 24.1793C82.4716 25.4781 84.179 24.0479 83.9601 22.6324C83.6683 20.8228 83.391 19.0132 83.0991 17.2036C84.9233 16.5323 86.7329 15.788 88.4987 14.9562C89.8121 14.3433 89.316 12.4461 88.1193 12.0521V12.0375Z" fill="#004366"/>
<path d="M122.394 15.7852L118.936 12.3277C119.837 10.9447 120.696 9.54069 121.493 8.09481C122.415 6.43938 120.885 4.11339 118.915 4.74203L113.215 6.60701C111.455 4.84681 109.695 3.0866 107.935 1.32639C106.803 0.194827 104.435 0.59297 104.121 2.33222C103.702 4.63726 103.492 6.94229 103.429 9.26828C102.78 8.95396 101.984 8.95396 101.313 9.31019C100.328 9.81311 99.3433 10.316 98.3793 10.8189C96.661 11.699 97.0382 14.5699 98.9242 14.989C100.559 15.3452 102.193 15.7014 103.828 16.0577C104.163 18.4046 104.666 20.7515 105.399 23.0356C105.923 24.6701 107.935 25.2568 109.213 24.0415C111.078 22.2603 112.796 20.3534 114.452 18.3836C116.359 18.8027 118.286 19.2218 120.193 19.6409C122.352 20.1019 124.07 17.5035 122.415 15.8272L122.394 15.7852Z" fill="#004366"/>
<path d="M152.559 13.2774C150.815 11.6105 148.954 10.0598 147.035 8.60606C147.345 6.86158 147.636 5.09771 147.946 3.35322C148.101 2.42283 147.849 1.47305 146.977 0.969092C146.202 0.503895 145.058 0.620194 144.418 1.29861C143.372 2.44221 142.344 3.56644 141.298 4.71004C140.018 3.9541 138.7 3.23692 137.363 2.55851C135.87 1.82195 133.564 3.08186 134.261 4.94264C134.921 6.70651 135.58 8.47038 136.239 10.2149C134.707 11.8818 133.176 13.5682 131.645 15.2351C130.695 16.2624 130.889 18.5302 132.575 18.7628C134.746 19.0536 136.917 19.1699 139.088 19.1311C138.817 19.6739 138.778 20.3329 139.165 21.0307C139.669 21.9223 140.173 22.7945 140.677 23.6862C141.511 25.1593 144.205 25.0236 144.535 23.1822C144.806 21.6316 145.077 20.0615 145.329 18.5109C147.461 18.1232 149.574 17.5611 151.629 16.8051C153.063 16.2818 153.78 14.4598 152.559 13.2774Z" fill="#004366"/>
</g>
<defs>
<clipPath id="clip0_3585_1489">
<rect width="153.182" height="24" fill="white" transform="translate(0 0.688721)"/>
</clipPath>
</defs>
</svg>
