<svg width="24" height="24" viewBox="0 0 24 24" fill="none" xmlns="http://www.w3.org/2000/svg">
<g clip-path="url(#clip0_3586_1658)">
<path d="M12.5255 0.019512C13.8355 -0.000488281 15.1355 0.00951185 16.4355 -0.000488281C16.5155 1.52953 17.0655 3.08955 18.1855 4.16957C19.3055 5.27958 20.8856 5.78959 22.4256 5.95959V9.98965C20.9856 9.93965 19.5355 9.63964 18.2255 9.01963C17.6555 8.75963 17.1255 8.42963 16.6055 8.08962C16.5955 11.0097 16.6155 13.9297 16.5855 16.8397C16.5055 18.2398 16.0455 19.6298 15.2355 20.7798C13.9255 22.6998 11.6554 23.9498 9.32541 23.9898C7.89539 24.0698 6.46537 23.6798 5.24535 22.9598C3.22533 21.7698 1.80531 19.5898 1.5953 17.2497C1.5753 16.7497 1.5653 16.2497 1.5853 15.7597C1.76531 13.8597 2.70532 12.0397 4.16534 10.7997C5.82536 9.35964 8.14539 8.66963 10.3154 9.07963C10.3354 10.5597 10.2754 12.0397 10.2754 13.5197C9.28541 13.1997 8.12539 13.2897 7.25538 13.8897C6.62537 14.2997 6.14537 14.9297 5.89536 15.6397C5.68536 16.1497 5.74536 16.7097 5.75536 17.2497C5.99536 18.8898 7.57539 20.2698 9.25541 20.1198C10.3754 20.1098 11.4454 19.4598 12.0254 18.5098C12.2154 18.1798 12.4255 17.8398 12.4355 17.4497C12.5355 15.6597 12.4955 13.8797 12.5055 12.0897C12.5155 8.05962 12.4955 4.03957 12.5255 0.019512Z" fill="#004366"/>
</g>
<defs>
<clipPath id="clip0_3586_1658">
<rect width="24" height="24" fill="white"/>
</clipPath>
</defs>
</svg>
